<svg class="img-fluid" id="outputsvg" xmlns="http://www.w3.org/2000/svg" style="transform: none; transform-origin: 50% 50% 0px; cursor: move; transition: none;" width="500" height="500" viewBox="0 0 5000 5000"><g id="l5WC569HFvJmTaA04jIZUug" fill="rgb(247,185,177)" style="transform: none;"><g><path id="podfbZKjm" d="M1490 4653 c-57 -20 -167 -84 -191 -111 -41 -47 -39 -104 10 -257 21 -66 62 -194 91 -285 109 -348 162 -516 170 -540 5 -14 30 -92 55 -175 25 -82 57 -185 71 -228 14 -43 22 -82 19 -87 -4 -6 -107 -10 -253 -10 -229 0 -249 -2 -280 -20 -18 -11 -41 -34 -53 -52 -25 -41 -22 -96 14 -246 20 -85 22 -105 11 -109 -25 -9 -15 -19 36 -32 27 -7 60 -21 74 -32 14 -11 40 -19 60 -19 33 0 36 2 36 30 0 17 -13 91 -30 165 -16 74 -30 137 -30 140 0 3 109 5 242 5 l242 0 51 -35 c64 -45 149 -61 243 -46 59 9 87 23 157 75 8 6 23 2 42 -12 16 -11 57 -30 91 -41 60 -20 75 -21 310 -15 136 4 249 11 252 15 3 5 23 3 43 -3 31 -10 52 -31 119 -121 l82 -109 110 7 c61 4 113 9 115 10 2 2 -9 17 -25 33 -41 41 -154 199 -147 205 3 3 16 2 30 -4 13 -5 46 -9 73 -9 l49 0 3 -52 3 -53 97 -3 c93 -3 99 -4 127 -32 34 -35 86 -40 135 -15 27 14 31 14 38 0 15 -26 25 -17 32 28 3 23 9 59 12 80 4 24 2 37 -5 37 -6 0 -11 -6 -11 -12 0 -9 -4 -8 -10 2 -12 18 -13 140 -2 157 6 9 19 -1 46 -33 31 -36 35 -48 26 -59 -10 -13 -8 -15 12 -15 34 0 78 22 78 40 0 12 16 15 78 16 92 1 113 11 138 61 15 31 19 67 22 189 2 83 -1 168 -6 188 -13 46 1 38 31 -17 19 -35 22 -58 22 -142 0 -84 -4 -108 -22 -146 -13 -25 -23 -62 -23 -82 l0 -37 60 0 c47 0 60 3 60 15 0 8 -7 15 -16 15 -10 0 -14 5 -10 15 42 111 52 271 22 366 -38 118 -116 186 -224 196 -120 11 -197 -18 -256 -97 -16 -22 -34 -36 -39 -33 -5 3 -7 30 -4 63 l6 57 -277 6 c-259 4 -280 4 -319 -15 -83 -38 -133 -143 -141 -293 -2 -50 0 -107 6 -128 6 -20 7 -39 2 -42 -4 -3 -44 44 -89 104 l-81 108 0 132 0 131 -98 0 -97 0 -125 168 c-68 92 -242 325 -386 519 l-263 352 -181 90 c-174 87 -214 100 -260 84z m185 -256 l140 -72 308 -415 308 -415 -64 -6 c-44 -4 -79 -14 -110 -32 l-45 -27 -46 26 c-33 18 -66 27 -119 31 -95 7 -166 -10 -222 -53 l-44 -33 -30 92 c-54 166 -291 926 -291 935 0 7 56 40 70 41 3 0 68 -32 145 -72z m964 -1224 c0 -212 -7 -274 -35 -304 -19 -21 -19 -19 -24 197 -3 121 -3 236 -1 257 3 33 6 37 32 37 l29 0 -1 -187z m173 10 c2 -98 2 -215 0 -260 -3 -81 -3 -83 -27 -83 l-25 0 0 260 0 260 25 0 24 0 3 -177z m708 -143 l0 -320 -25 0 -25 0 0 320 0 320 25 0 25 0 0 -320z m190 60 l0 -260 -25 0 -25 0 0 260 0 260 25 0 25 0 0 -260z m-1369 233 c-15 -30 -22 -125 -13 -180 8 -45 7 -51 -5 -41 -53 44 -57 157 -8 208 33 34 40 37 26 13z m858 -59 c-13 -33 -17 -260 -6 -317 12 -55 -7 -39 -30 26 -28 81 -24 197 10 271 27 59 48 75 26 20z m711 -29 c-12 -69 -12 -208 0 -279 5 -33 8 -62 5 -64 -9 -10 -46 83 -57 146 -10 58 -9 79 5 135 14 57 44 124 52 115 2 -2 -1 -25 -5 -53z m174 40 c28 -28 38 -95 34 -210 -5 -115 -20 -166 -54 -179 -31 -12 -63 33 -75 104 -11 68 -4 204 12 249 18 48 55 64 83 36z m-2207 -32 c-14 -50 -14 -290 1 -325 17 -42 6 -33 -24 18 -49 83 -43 236 12 322 21 32 24 27 11 -15z m1488 12 c24 -23 25 -28 25 -177 0 -84 -3 -163 -6 -175 -9 -34 -57 -31 -82 5 -28 39 -43 159 -32 248 16 123 43 152 95 99z m-1306 -81 c18 -46 21 -49 61 -54 38 -5 43 -9 55 -42 l13 -38 -78 0 -78 0 -7 -52 -7 -51 -13 29 c-28 67 -26 169 5 248 13 36 24 27 49 -40z m981 -319 c0 -8 -4 -15 -9 -15 -5 0 -14 7 -21 15 -10 13 -9 15 9 15 12 0 21 -6 21 -15z m659 -191 c-9 -11 -15 -12 -25 -3 -11 9 -12 15 -3 25 9 11 15 12 25 3 11 -9 12 -15 3 -25z"></path><path id="plLSCV1Va" d="M4095 2773 c-16 -2 -62 -10 -102 -19 -59 -12 -77 -21 -99 -47 -27 -32 -27 -32 -21 -163 6 -145 21 -197 61 -216 30 -13 31 -16 13 -43 -37 -55 -67 -184 -67 -285 l0 -70 -37 0 c-23 0 -48 -9 -70 -26 -71 -54 -134 -40 -174 38 -21 40 -21 50 -14 240 8 225 5 238 -62 258 -31 9 -152 10 -298 1 -5 0 -66 2 -135 5 -107 4 -131 2 -165 -14 -39 -18 -41 -18 -89 1 -117 44 -302 28 -387 -34 -12 -9 -30 -6 -83 15 -138 55 -379 59 -516 7 -165 -62 -270 -222 -270 -412 l0 -79 -30 0 c-18 0 -47 -12 -72 -30 -52 -38 -95 -39 -132 -5 -53 49 -58 78 -50 290 8 213 5 227 -51 251 -47 19 -253 19 -300 0 -30 -13 -41 -12 -92 2 -86 24 -338 23 -418 -1 -147 -45 -251 -154 -290 -304 -20 -76 -20 -261 0 -338 43 -165 170 -282 343 -315 82 -17 297 -8 371 15 51 16 56 16 93 -1 51 -23 248 -25 293 -3 27 13 36 12 85 -4 44 -15 75 -18 156 -15 114 5 185 31 212 78 l15 26 49 -33 c27 -18 73 -40 101 -49 71 -22 241 -30 319 -14 84 16 179 62 216 105 l31 34 6 -28 c6 -29 34 -60 71 -80 69 -35 346 -53 456 -30 69 15 145 49 185 83 30 25 33 26 39 9 13 -43 32 -69 59 -82 42 -20 250 -20 292 1 27 13 33 13 59 0 45 -23 205 -28 282 -8 50 13 68 13 85 4 14 -7 70 -11 149 -11 209 1 221 18 193 253 -27 223 -15 305 49 344 14 9 22 6 41 -17 37 -42 48 -99 41 -212 -20 -319 -21 -308 7 -334 30 -28 144 -44 247 -35 87 8 116 20 133 57 21 45 40 417 35 697 -4 277 -13 307 -117 411 -115 115 -197 140 -446 138 -93 -1 -183 -4 -200 -6z m330 -128 c93 -20 164 -56 213 -109 92 -100 108 -175 98 -471 -11 -331 -21 -436 -42 -452 -20 -14 -111 -17 -132 -4 -11 7 -11 30 -1 132 22 227 0 365 -68 431 -30 29 -41 33 -104 36 -125 7 -193 -39 -218 -148 -14 -60 -13 -233 3 -348 14 -108 11 -112 -66 -112 -71 0 -79 12 -90 131 -15 164 -6 342 22 413 72 187 294 246 419 111 22 -24 41 -49 41 -55 0 -5 20 -10 45 -10 l45 0 0 72 c0 121 -59 204 -177 248 -91 34 -244 24 -352 -22 -55 -23 -62 -16 -59 67 3 60 3 60 40 72 89 29 286 38 383 18z m-3669 -330 c112 -20 121 -29 116 -112 l-4 -61 -35 24 c-49 33 -95 44 -188 44 -119 -1 -184 -36 -220 -122 -18 -44 -20 -183 -4 -243 15 -53 73 -110 129 -125 67 -18 186 -7 249 23 l51 24 0 -58 c0 -70 -12 -81 -107 -100 -243 -46 -432 67 -478 287 -17 83 -7 156 35 241 46 92 117 149 222 177 70 19 127 19 234 1z m1502 -14 c88 -27 102 -42 102 -107 l0 -53 -36 24 c-111 75 -312 73 -410 -4 -49 -39 -74 -82 -74 -128 l0 -43 40 0 c22 0 69 9 103 21 135 46 265 9 336 -96 30 -45 33 -55 28 -102 -13 -131 -152 -222 -321 -211 -162 11 -286 125 -317 293 -27 149 53 319 183 386 101 52 240 60 366 20z m484 15 c50 -15 108 -55 131 -89 l14 -22 -97 3 c-59 2 -106 -1 -119 -7 -27 -15 -45 -83 -36 -140 8 -56 60 -110 122 -129 67 -20 166 -16 197 9 23 18 26 27 26 87 0 48 -6 78 -20 105 l-20 37 25 0 c24 0 25 2 25 69 0 80 2 81 90 81 39 0 62 -5 70 -15 10 -12 11 -57 1 -228 -15 -272 -26 -313 -100 -388 -67 -66 -132 -89 -255 -89 -85 0 -209 24 -225 44 -6 7 -15 40 -19 74 l-9 61 41 -24 c84 -49 246 -70 338 -45 66 19 90 90 48 143 -21 26 -37 31 -230 68 -203 40 -305 174 -234 311 26 50 103 94 170 97 11 1 41 -5 66 -13z m-1576 -6 c6 -6 6 -49 1 -117 -19 -248 5 -356 92 -418 37 -26 53 -30 124 -33 59 -3 95 1 127 13 87 32 80 36 80 -44 l0 -72 -46 -21 c-96 -42 -212 0 -269 99 -28 48 -33 52 -67 53 l-38 0 0 -79 c0 -88 -3 -91 -70 -91 -22 0 -47 8 -60 18 -23 19 -23 21 -28 345 -3 179 -2 333 1 341 5 12 22 16 75 16 37 0 72 -4 78 -10z m2285 -181 c-3 -156 -1 -194 14 -238 21 -64 55 -105 108 -133 56 -28 205 -23 259 9 43 25 48 19 48 -60 0 -63 -5 -72 -53 -92 -91 -38 -197 2 -260 98 -34 51 -42 57 -73 57 -41 0 -50 -23 -39 -105 l6 -54 -37 -7 c-20 -4 -53 -3 -73 2 -36 9 -36 9 -42 74 -14 147 -21 597 -9 619 10 20 18 22 83 19 l72 -3 -4 -186z m-2733 -63 c15 -8 38 -26 51 -40 15 -16 39 -28 67 -32 43 -6 44 -7 44 -45 l0 -39 -45 0 c-36 0 -57 -8 -96 -35 -67 -46 -115 -47 -161 -6 -31 27 -33 34 -33 91 0 57 2 64 33 91 37 33 94 39 140 15z"></path><path id="pltFOWosA" d="M1975 1980 c-110 -18 -141 -48 -133 -131 9 -87 68 -142 167 -154 97 -11 173 11 196 56 18 34 20 138 3 174 -7 15 -24 33 -40 41 -35 18 -128 25 -193 14z m95 -130 c26 -17 -7 -30 -43 -17 -28 9 -29 11 -11 18 26 10 37 10 54 -1z"></path><path id="p9peRWfy2" d="M1355 2188 c-3 -18 -5 -82 -3 -143 l3 -110 55 0 55 0 3 35 c2 19 -7 83 -19 142 l-23 108 -33 0 c-28 0 -33 -4 -38 -32z"></path><path id="pxhk3vpvZ" d="M3642 2048 l3 -113 47 -3 c58 -4 118 30 118 67 0 19 -3 21 -14 12 -12 -10 -25 1 -70 58 -31 38 -56 75 -56 80 0 6 -7 11 -15 11 -13 0 -15 -17 -13 -112z"></path><path id="p1F9Oq3Ckl" d="M3038 1457 c-62 -29 -68 -35 -68 -63 0 -23 65 -132 265 -445 l265 -414 -714 -8 -714 -8 -151 75 c-126 64 -152 80 -157 103 -4 14 -42 182 -84 372 l-77 346 -99 -3 c-54 -2 -101 -6 -103 -8 -3 -2 2 -10 11 -17 8 -6 21 -39 27 -72 7 -33 21 -94 30 -135 10 -41 44 -194 77 -339 44 -201 64 -271 80 -291 13 -14 101 -65 198 -114 l175 -88 803 4 c890 3 839 -1 888 69 29 39 30 115 4 159 -24 38 -343 537 -439 685 -101 155 -123 196 -107 202 6 3 12 9 12 14 0 18 -56 7 -122 -24z"></path></g></g><g id="l56yknGkYpYNTs5nuXqItsz" fill="rgb(231,81,52)" style="transform: none;"><g><path id="pO1oLHz2r" d="M1760 4299 c0 -16 57 -212 127 -434 l127 -404 40 -7 c47 -7 87 -26 133 -60 l32 -24 26 25 c37 38 103 65 158 65 43 0 48 2 45 20 -2 11 -142 206 -312 435 -300 404 -309 415 -342 415 -31 0 -34 -3 -34 -31z"></path><path id="pOlmrU7dL" d="M2418 3253 c-5 -82 6 -119 42 -138 l30 -16 0 64 c0 50 -5 70 -21 91 -27 34 -48 34 -51 -1z"></path><path id="pise7yIND" d="M2120 3142 c0 -42 30 -120 49 -125 10 -2 30 -29 45 -63 30 -65 39 -62 50 17 6 41 4 50 -20 78 -15 18 -32 49 -39 69 -11 32 -18 37 -49 40 -30 3 -36 0 -36 -16z"></path><path id="pOqC9Pbsz" d="M2437 2934 c5 -13 34 -34 47 -34 3 0 6 6 6 14 0 8 -13 19 -29 24 -25 9 -29 8 -24 -4z"></path><path id="pz99ZNjo3" d="M2227 2857 c-14 -21 -12 -32 18 -130 l32 -107 -328 0 -329 0 0 -32 c0 -18 8 -70 17 -115 17 -81 18 -83 46 -83 15 0 58 18 95 40 157 95 353 110 550 44 91 -30 116 -30 183 1 83 37 181 49 249 30 90 -26 140 -29 200 -11 29 9 80 16 112 16 l58 0 0 35 c0 47 -109 194 -175 236 -25 16 -48 29 -50 29 -3 0 -5 -13 -5 -30 l0 -30 -115 0 c-96 0 -115 3 -115 15 0 19 1 19 -51 -5 -87 -39 -222 -17 -329 53 -36 23 -48 37 -44 50 7 24 -1 21 -19 -6z"></path><path id="pmNabvbzt" d="M2339 1490 c-14 -10 -61 -31 -105 -47 -72 -26 -90 -28 -211 -27 l-133 1 0 -41 c0 -41 171 -831 182 -842 4 -3 319 -2 702 2 l696 7 0 32 c0 26 -56 121 -257 434 l-257 401 -106 0 c-168 0 -291 24 -373 72 -56 32 -101 35 -138 8z"></path></g></g><g id="l6NUwPCJihO7t7qWNN1BF3t" fill="rgb(1,65,142)" style="transform: none;"><g><path id="p16pmcgfqj" d="M1468 4485 c-26 -14 -49 -28 -52 -33 -2 -4 13 -61 34 -127 21 -66 98 -309 170 -540 72 -231 136 -432 142 -447 l10 -28 28 39 c49 67 134 111 217 111 18 0 33 3 33 8 0 4 -59 191 -130 417 -71 225 -127 411 -126 413 2 1 143 -186 314 -416 270 -363 316 -420 346 -429 18 -6 39 -7 46 -3 8 5 -99 156 -322 456 l-333 449 -150 77 c-82 42 -157 77 -165 77 -8 0 -36 -11 -62 -24z"></path><path id="pDbywrEXU" d="M1925 3380 c-85 -42 -137 -150 -138 -285 0 -99 14 -152 56 -207 42 -56 105 -88 175 -88 60 0 94 15 135 58 l28 29 -17 37 c-24 49 -50 48 -58 -2 -10 -66 -67 -102 -121 -76 -140 66 -110 514 34 514 39 0 91 -45 116 -100 20 -45 40 -52 49 -17 13 50 7 76 -27 101 -76 58 -161 71 -232 36z"></path><path id="pgeLOauow" d="M2325 3381 c-16 -10 -37 -27 -47 -37 -43 -49 -45 -176 -4 -237 30 -45 71 -69 167 -100 111 -36 111 -36 107 -87 -8 -108 -129 -98 -183 15 -20 44 -37 41 -48 -8 -12 -50 -8 -58 54 -91 67 -37 178 -48 227 -22 64 33 67 43 70 323 l4 253 -61 0 -61 0 0 -37 0 -37 -32 31 c-58 55 -136 69 -193 34z m182 -86 l43 -45 0 -120 c0 -66 -3 -120 -7 -119 -25 1 -139 69 -156 91 -39 52 -40 176 -2 218 31 35 73 26 122 -25z"></path><path id="pguweR3ro" d="M3225 3382 c-42 -27 -61 -50 -87 -107 -30 -67 -33 -243 -5 -321 38 -108 126 -172 224 -162 27 3 56 9 66 13 15 6 17 0 17 -54 l0 -61 55 0 55 0 0 350 0 350 -55 0 c-54 0 -55 0 -55 -30 l0 -30 -44 32 c-57 40 -127 48 -171 20z m138 -53 c12 -6 34 -23 50 -37 l27 -26 0 -201 0 -201 -33 -12 c-46 -16 -88 -15 -115 4 -72 50 -101 262 -55 406 22 70 70 96 126 67z"></path><path id="pTN1ml1D4" d="M3950 3378 c-24 -13 -56 -39 -71 -58 -52 -65 -73 -205 -48 -322 14 -67 33 -104 72 -145 22 -23 26 -33 15 -33 -20 0 -115 -101 -128 -136 -12 -30 -5 -184 11 -271 6 -29 21 -68 35 -88 l24 -36 -24 -68 c-13 -38 -28 -100 -32 -139 -6 -64 -9 -73 -33 -85 -14 -7 -36 -19 -47 -27 -12 -7 -29 -10 -38 -7 -14 6 -16 31 -16 212 0 226 -2 235 -62 292 -57 55 -96 65 -262 67 l-148 3 -78 103 c-61 82 -86 107 -114 117 -20 7 -51 22 -68 35 -39 27 -35 21 74 -124 48 -64 88 -120 88 -123 0 -3 -26 -5 -58 -5 -32 0 -82 -7 -111 -16 -48 -14 -57 -14 -99 1 -105 35 -246 27 -350 -20 l-53 -24 -74 24 c-104 35 -253 51 -357 37 -112 -15 -171 -34 -248 -81 l-65 -39 -17 77 c-10 42 -18 79 -18 84 0 4 151 7 335 7 250 0 335 3 335 12 0 6 -19 69 -41 140 l-41 128 -28 -39 c-76 -104 -231 -125 -345 -47 l-51 36 -273 0 c-210 0 -273 -3 -276 -13 -3 -7 10 -82 29 -167 19 -85 33 -156 31 -159 -3 -2 -13 3 -23 12 -40 36 -92 45 -222 37 -69 -4 -137 -12 -151 -18 -21 -8 -41 -7 -85 5 -89 25 -341 24 -414 -1 -222 -75 -347 -230 -381 -468 -20 -143 17 -316 90 -421 58 -83 147 -159 235 -198 56 -24 185 -49 256 -49 63 0 211 23 252 39 21 8 36 7 65 -6 50 -21 205 -28 263 -13 59 16 84 16 150 -1 30 -7 91 -14 134 -14 l80 -1 76 -345 c43 -190 80 -358 84 -372 5 -23 31 -39 158 -103 l151 -75 763 8 763 8 -285 444 -284 444 78 38 c76 37 77 37 97 19 11 -11 38 -27 60 -36 52 -22 205 -30 265 -14 58 16 78 15 175 -4 65 -13 92 -14 144 -6 36 6 72 15 82 21 12 6 39 4 81 -7 76 -20 234 -15 288 8 20 8 49 29 65 46 l30 32 35 -34 c56 -52 89 -61 235 -61 101 1 137 4 161 17 46 25 92 77 108 122 20 57 36 312 38 621 1 258 1 261 -26 339 -82 239 -302 376 -608 376 -43 0 -78 3 -78 7 0 4 9 25 20 47 45 93 45 268 1 355 -57 109 -193 154 -301 99z m164 -49 c42 -33 59 -110 54 -253 -3 -92 -8 -130 -22 -159 -21 -43 -34 -52 -94 -61 -37 -5 -46 -3 -67 18 -36 36 -49 98 -49 231 -1 178 30 245 115 245 22 0 47 -8 63 -21z m381 -594 c95 -25 145 -54 216 -124 101 -101 112 -137 117 -381 5 -249 -14 -623 -34 -666 -21 -44 -54 -55 -164 -55 -156 0 -186 21 -176 128 15 170 18 340 7 379 -18 67 -45 94 -95 94 -47 0 -75 -22 -97 -75 -16 -41 -14 -197 5 -326 9 -61 12 -118 7 -135 -14 -53 -71 -69 -233 -65 -34 1 -55 8 -74 25 l-28 23 -50 -26 c-44 -23 -62 -26 -146 -26 -83 1 -101 4 -146 27 l-51 27 -20 -21 c-40 -39 -241 -41 -284 -3 -24 23 -39 75 -39 140 l0 50 -27 -45 c-39 -68 -72 -98 -138 -130 -112 -52 -236 -63 -400 -35 -147 26 -172 47 -188 165 l-12 81 -17 -48 c-57 -161 -278 -249 -496 -198 -82 19 -134 47 -191 100 l-47 44 -12 -44 c-9 -34 -21 -51 -49 -69 -81 -53 -217 -59 -317 -13 -49 23 -56 24 -68 10 -21 -26 -59 -34 -150 -34 -90 0 -122 9 -149 43 -15 19 -18 19 -40 5 -71 -45 -276 -70 -391 -48 -223 44 -358 215 -358 456 0 135 36 239 111 320 93 101 194 139 369 139 109 0 250 -23 274 -45 5 -4 22 2 38 14 24 18 47 23 114 26 107 4 150 -4 181 -35 l24 -24 -6 -203 c-7 -200 -7 -202 17 -246 46 -86 136 -102 226 -40 23 16 55 29 71 29 l29 0 4 98 c8 156 64 265 178 345 84 58 173 82 305 81 126 -1 214 -20 290 -63 l51 -29 34 29 c63 52 187 78 275 59 28 -6 74 -22 103 -36 48 -23 55 -24 65 -10 34 44 182 61 271 31 41 -14 49 -14 75 0 39 20 198 21 246 1 52 -22 58 -43 51 -175 -13 -220 -11 -275 15 -323 34 -61 85 -85 151 -69 27 6 64 22 82 36 21 16 46 25 69 25 l37 0 0 70 c0 252 116 419 314 451 l51 8 -58 -4 c-41 -3 -79 -14 -128 -39 -75 -38 -98 -43 -131 -25 -31 17 -48 71 -54 181 -7 101 -6 104 20 135 22 26 40 35 99 47 100 22 114 23 272 25 99 1 159 -4 200 -14z m-3060 -763 c-3 -7 -15 -12 -27 -10 -21 3 -23 9 -26 83 -2 44 0 96 4 115 6 32 9 25 30 -70 14 -58 22 -111 19 -118z m1012 -520 c82 -48 205 -72 373 -72 l106 0 257 -401 c142 -221 256 -403 255 -404 -2 -1 -303 -5 -670 -9 -637 -7 -667 -6 -672 11 -9 30 -176 786 -176 798 0 6 48 10 133 10 118 1 140 4 211 28 44 16 91 37 105 47 14 11 27 20 28 20 1 0 24 -13 50 -28z"></path><path id="pSLMd9TzB" d="M4154 2680 c-188 -20 -197 -26 -187 -137 7 -86 17 -123 34 -123 6 0 39 13 73 29 69 32 145 51 211 51 98 0 214 -70 254 -153 25 -52 29 -127 6 -127 -8 0 -15 5 -15 10 0 6 -19 31 -41 55 -49 53 -109 75 -204 75 -87 0 -150 -24 -206 -80 -74 -74 -92 -133 -97 -320 -5 -203 9 -359 34 -377 24 -18 164 -18 188 0 18 13 18 19 2 143 -27 214 -19 314 31 386 51 75 165 89 227 29 54 -52 71 -117 70 -261 -1 -69 -7 -161 -13 -204 -16 -101 -11 -106 104 -106 113 0 115 2 125 136 18 225 23 596 11 668 -43 244 -241 344 -607 306z"></path><path id="pjWcUEANh" d="M492 2344 c-29 -7 -65 -20 -80 -28 -134 -70 -211 -248 -183 -421 27 -163 113 -267 259 -312 99 -30 335 -10 382 32 18 16 20 27 14 99 -8 99 -20 117 -61 88 -109 -78 -248 -79 -324 -3 -84 83 -79 259 9 333 86 72 227 62 335 -24 41 -33 53 -13 61 97 9 113 4 118 -118 140 -108 18 -223 18 -294 -1z"></path><path id="p17HBofnOU" d="M1025 2351 l-40 -6 0 -369 1 -369 23 -18 c18 -15 40 -19 93 -19 104 0 110 5 102 96 -4 41 -3 74 2 74 5 -1 23 -24 39 -53 44 -76 106 -111 206 -116 61 -2 86 1 123 17 l46 21 0 99 c0 111 -14 147 -47 125 -67 -46 -100 -57 -170 -58 -63 0 -76 3 -114 30 -50 36 -85 99 -95 172 -3 29 -1 119 5 200 9 117 9 149 -1 159 -16 15 -119 24 -173 15z"></path><path id="pbtraOWc7" d="M1955 2347 c-192 -51 -299 -215 -281 -432 7 -88 27 -147 71 -207 69 -94 167 -139 304 -139 143 1 241 42 299 128 20 30 26 53 30 115 4 70 2 81 -22 123 -32 54 -92 100 -150 116 -66 18 -183 13 -259 -12 -37 -12 -70 -19 -73 -16 -24 24 67 119 142 147 97 36 198 20 293 -45 28 -19 55 -35 60 -35 15 0 21 29 21 109 0 93 -8 103 -102 133 -80 25 -261 33 -333 15z m178 -409 c77 -30 74 -166 -4 -199 -39 -16 -128 -15 -161 1 -39 21 -77 62 -89 97 -20 61 20 97 126 113 53 7 83 5 128 -12z"></path><path id="phVGdbRc0" d="M1973 1879 c-40 -12 -42 -31 -7 -58 53 -42 139 -38 155 7 19 51 -57 77 -148 51z"></path><path id="pRohxAmJp" d="M2587 2348 c-52 -14 -112 -73 -126 -123 -26 -95 -4 -191 55 -247 37 -34 124 -73 194 -87 192 -37 209 -42 230 -68 18 -23 19 -29 7 -47 -46 -69 -256 -53 -362 28 -42 32 -63 33 -71 2 -7 -30 13 -175 27 -192 18 -22 147 -45 254 -45 151 -1 215 19 286 90 45 46 58 67 72 116 21 78 46 528 30 553 -13 21 -81 32 -151 25 -73 -8 -83 -20 -75 -94 7 -72 -4 -76 -46 -16 -68 99 -194 139 -324 105z m288 -193 c74 -43 101 -143 49 -184 -67 -53 -229 7 -252 92 -10 38 1 87 25 105 30 22 131 15 178 -13z"></path><path id="p169z50YjM" d="M2734 2105 c-15 -39 46 -85 114 -85 46 0 52 11 26 48 -32 46 -127 71 -140 37z"></path><path id="px7R1vyS" d="M3317 2353 c-29 -3 -41 -10 -49 -29 -16 -34 4 -720 21 -737 16 -16 186 -16 202 0 9 9 9 25 1 69 -18 88 -3 98 44 28 53 -80 118 -114 216 -114 68 0 135 19 150 43 11 17 10 171 -2 201 -12 33 -18 33 -79 -5 -98 -61 -218 -48 -284 30 -50 59 -61 118 -53 285 4 83 9 159 12 171 9 35 -16 52 -81 57 -33 3 -77 3 -98 1z"></path><path id="p12H2Px80u" d="M602 2110 c-75 -18 -115 -104 -92 -200 18 -75 53 -100 140 -100 61 0 73 3 119 35 52 36 106 46 129 23 6 -6 13 -10 15 -7 10 10 -6 178 -16 172 -25 -15 -70 -3 -107 31 -55 50 -113 64 -188 46z"></path><path id="pxcdocx8B" d="M2399 1989 c17 -22 35 -64 42 -93 l11 -52 28 26 28 25 -29 23 c-16 13 -41 43 -55 68 -14 24 -32 44 -40 44 -10 0 -5 -13 15 -41z"></path><path id="p1AjXtV4PG" d="M2700 1815 c19 -7 55 -13 80 -13 l45 0 -45 9 c-25 4 -61 11 -80 13 l-35 5 35 -14z"></path><path id="p11EgpR6W2" d="M2730 3100 l0 -290 55 0 55 0 0 80 c0 44 4 80 10 80 5 0 28 -24 52 -53 58 -71 91 -97 133 -104 l35 -6 0 52 c0 49 -1 51 -27 51 -40 0 -107 36 -158 86 l-45 43 0 176 0 175 -55 0 -55 0 0 -290z"></path><path id="p10UghILXk" d="M3630 3100 l0 -290 55 0 55 0 0 290 0 290 -55 0 -55 0 0 -290z"></path><path id="pHK5vXvNJ" d="M1998 3283 c-28 -32 -42 -96 -42 -193 -1 -95 11 -146 42 -182 25 -30 49 -6 57 57 l6 55 58 0 c32 0 62 -5 69 -12 9 -9 8 1 -2 30 -9 24 -20 61 -26 82 -7 27 -17 40 -31 42 -15 2 -27 18 -40 52 -30 80 -61 103 -91 69z"></path><path id="p1Gj8ZtVbE" d="M3662 2739 c-12 -5 -27 -20 -34 -34 -10 -22 -8 -30 9 -53 26 -35 59 -40 89 -11 28 26 30 46 9 76 -18 25 -43 33 -73 22z"></path></g></g></svg>